<?xml version="1.0" standalone="no"?>
<!DOCTYPE svg PUBLIC "-//W3C//DTD SVG 20010904//EN" "http://www.w3.org/TR/2001/REC-SVG-20010904/DTD/svg10.dtd">
<svg xmlns="http://www.w3.org/2000/svg" version="1.0" width="200.000000pt" height="200.000000pt" viewBox="0 0 200.000000 200.000000" preserveAspectRatio="xMidYMid meet">
<metadata>
Created by potrace 1.16, written by Peter Selinger 2001-2019
<meta name="Producer" content="Online-Convert"/></metadata>
<g transform="translate(0.000000,200.000000) scale(0.100000,-0.100000)" fill="#000000" stroke="none">
<path d="M0 1760 l0 -240 240 0 240 0 0 240 0 240 -240 0 -240 0 0 -240z m410 0 l0 -170 -170 0 -170 0 0 170 0 170 170 0 170 0 0 -170z"/>
<path d="M142 1758 l3 -103 100 0 100 0 0 100 0 100 -103 3 -103 3 3 -103z"/>
<path d="M618 1968 c-3 -29 -7 -33 -35 -36 l-33 -3 0 -205 0 -204 35 0 c32 0 35 2 35 30 0 28 3 30 35 30 l35 0 0 -65 0 -65 35 0 36 0 -3 103 -3 102 -67 3 -68 3 0 99 0 100 169 0 170 0 3 -32 c3 -29 7 -33 36 -36 28 -3 32 -7 32 -33 l0 -29 -65 0 -65 0 0 30 c0 28 -3 30 -35 30 -33 0 -35 -2 -35 -35 0 -33 2 -35 35 -35 l35 0 0 -65 0 -65 -35 0 c-33 0 -35 -2 -35 -34 0 -32 3 -35 33 -38 l32 -3 3 -102 3 -103 64 0 64 0 3 -32 c3 -29 7 -33 36 -36 29 -3 32 -6 32 -38 l0 -34 -100 0 -100 0 0 35 c0 33 -2 35 -35 35 l-35 0 0 70 0 70 -35 0 -34 0 -3 -67 -3 -68 -65 0 -65 0 -3 103 -3 103 -137 -3 -137 -3 -3 -32 -3 -33 -64 0 -64 0 -3 33 c-3 28 -7 32 -35 35 -29 3 -32 1 -35 -30 l-3 -33 -68 -3 -67 -3 0 -69 0 -70 35 0 35 0 0 -105 0 -105 34 0 c32 0 35 -3 38 -32 3 -29 7 -33 36 -36 29 -3 32 -6 32 -38 0 -31 2 -34 30 -34 27 0 30 -3 30 -30 l0 -30 -64 0 -65 0 -3 33 c-3 28 -6 32 -33 32 -27 0 -30 -4 -33 -32 -3 -32 -2 -33 33 -33 35 0 36 -1 33 -32 l-3 -33 -68 -3 -67 -3 0 -34 0 -35 105 0 105 0 0 35 c0 32 2 35 29 35 26 0 30 -4 33 -32 3 -29 7 -33 36 -36 29 -3 32 -6 32 -38 l0 -34 -65 0 -65 0 0 -35 0 -36 67 3 68 3 3 33 c3 28 7 32 32 32 25 0 29 -4 32 -32 l3 -33 67 -3 67 -3 3 -102 3 -102 32 -3 c28 -3 32 -7 35 -35 l3 -32 68 -3 c67 -3 67 -3 67 -32 l0 -29 -102 -3 -103 -3 -3 -32 c-3 -32 -2 -33 32 -33 l36 0 0 -70 0 -70 139 0 140 0 3 32 c3 28 8 34 33 38 25 4 30 10 30 35 l0 30 -67 3 -68 3 0 64 0 65 65 0 65 0 0 -29 c0 -26 4 -30 32 -33 28 -3 34 -8 38 -33 5 -29 6 -30 73 -33 l67 -3 0 -69 0 -70 70 0 70 0 0 34 c0 32 -3 35 -32 38 l-33 3 0 65 0 65 100 0 100 0 3 -32 c3 -32 2 -33 -32 -33 l-36 0 0 -70 0 -70 35 0 35 0 0 70 0 70 36 0 c34 0 35 1 32 33 -3 28 -7 32 -35 35 -29 3 -33 7 -33 33 l0 29 65 0 65 0 0 -30 c0 -28 3 -30 34 -30 32 0 35 -3 38 -33 3 -28 7 -32 36 -35 29 -3 32 -6 32 -37 l0 -34 -67 -3 -68 -3 0 -30 0 -30 103 -3 102 -3 0 71 0 70 -30 0 c-28 0 -30 3 -30 35 0 32 2 35 30 35 28 0 30 3 30 35 0 32 -2 35 -30 35 -27 0 -30 3 -30 33 0 31 2 33 29 29 27 -4 30 -1 33 29 3 30 7 34 36 37 29 3 32 6 32 37 0 31 -3 34 -32 37 l-33 3 -3 103 -3 102 -29 0 c-28 0 -30 3 -30 35 l0 35 65 0 65 0 0 35 0 36 -67 -3 -68 -3 -3 -32 c-3 -29 -7 -33 -32 -33 -29 0 -29 0 -32 67 l-3 68 -32 3 c-28 3 -32 7 -35 35 -3 28 -7 32 -35 35 l-33 3 0 -105 0 -106 30 0 c28 0 30 -3 30 -35 l0 -35 -101 0 -100 0 3 33 c3 28 7 32 36 35 l33 3 -3 102 -3 102 -32 3 c-29 3 -33 7 -33 32 0 25 4 29 33 32 28 3 32 7 35 36 3 29 6 32 38 32 32 0 34 -2 34 -36 0 -34 1 -35 33 -32 l32 3 3 67 3 67 32 3 c28 3 32 7 35 36 3 28 7 32 32 32 l30 0 2 -172 3 -173 33 -3 c31 -3 32 -2 32 32 0 34 2 36 34 36 32 0 35 -3 38 -32 3 -29 7 -33 36 -36 l32 -3 0 -100 0 -99 -35 0 c-33 0 -35 -2 -35 -35 0 -33 2 -35 35 -35 l34 0 3 -137 3 -138 30 0 30 0 3 383 2 382 -35 0 c-32 0 -35 2 -35 30 0 28 -3 30 -36 30 -34 0 -35 -1 -32 -32 3 -29 7 -33 36 -36 l32 -3 0 -65 0 -64 -34 0 c-32 0 -35 3 -38 33 -3 28 -7 32 -35 35 l-33 3 0 100 0 99 -30 0 c-28 0 -30 3 -30 35 l0 35 100 0 100 0 0 -35 c0 -33 2 -35 35 -35 l35 0 0 69 0 70 -32 3 c-29 3 -33 7 -36 36 l-3 32 -172 -2 -172 -3 -3 -32 c-3 -29 -7 -33 -32 -33 -25 0 -29 4 -32 33 -3 28 -7 32 -35 35 l-32 3 -3 102 -3 102 -30 0 -30 0 -3 -67 -3 -68 -34 0 -35 0 0 100 0 99 68 3 67 3 3 33 3 32 -70 0 -71 0 0 -30 c0 -28 -3 -30 -35 -30 l-36 0 3 63 c3 62 3 62 36 65 29 3 32 6 32 38 0 32 2 34 35 34 33 0 35 -2 35 -35 0 -33 2 -35 35 -35 l35 0 0 70 0 70 -140 0 -140 0 0 -105 0 -105 -29 0 c-29 0 -41 14 -41 51 0 17 -8 19 -65 19 l-65 0 0 35 0 35 65 0 65 0 0 35 0 35 -99 0 -100 0 -3 -32 -3 -33 -65 0 -65 0 -3 33 -3 32 -69 0 -69 0 -3 -32z m622 -418 c0 -28 3 -30 35 -30 l35 0 0 -140 0 -140 35 0 35 0 0 70 0 70 71 0 70 0 -3 -32 c-3 -29 -7 -33 -35 -36 -28 -3 -32 -7 -35 -35 -3 -28 -7 -32 -35 -35 -30 -3 -33 -6 -33 -38 0 -32 2 -34 35 -34 33 0 35 2 35 36 0 34 1 35 33 32 28 -3 32 -6 32 -33 0 -27 -4 -30 -32 -33 -29 -3 -33 -7 -33 -33 l0 -29 -70 0 -70 0 0 -70 0 -70 -34 0 c-32 0 -35 3 -38 33 l-3 32 -67 3 -68 3 0 64 0 65 34 0 c32 0 35 3 38 33 3 28 7 32 36 35 31 3 32 2 32 -32 0 -34 2 -36 35 -36 33 0 35 2 35 34 0 32 -3 35 -32 38 -29 3 -33 7 -36 35 l-3 32 -67 3 -67 3 -3 33 -3 32 -65 0 -65 0 3 33 c3 32 3 32 65 35 62 3 62 3 65 35 3 28 7 32 36 35 28 3 32 7 32 33 0 27 3 29 35 29 32 0 35 -2 35 -30z m480 -204 c0 -32 -3 -35 -32 -38 -29 -3 -33 -7 -36 -35 l-3 -33 -65 0 -64 0 0 35 c0 33 2 35 35 35 33 0 35 2 35 35 l0 35 65 0 65 0 0 -34z m-1378 -68 l3 -33 68 -3 67 -3 0 -34 0 -35 -70 0 -71 0 3 -67 3 -68 33 -3 c28 -3 32 -7 32 -32 0 -25 -4 -29 -32 -32 -29 -3 -33 -7 -36 -35 -3 -29 -7 -33 -32 -33 l-29 0 -3 103 -3 102 -32 3 c-32 3 -33 2 -33 -32 0 -34 -2 -36 -35 -36 l-35 0 0 65 0 64 68 3 67 3 3 68 c3 67 3 67 32 67 25 0 29 -4 32 -32z m488 -143 l0 -105 100 0 99 0 3 -67 3 -68 33 -3 c28 -3 32 -7 32 -32 0 -25 -4 -29 -32 -32 -29 -3 -33 -7 -36 -35 -3 -29 -7 -33 -32 -33 -29 0 -29 0 -32 68 l-3 67 -32 3 c-28 3 -32 7 -35 35 l-3 32 -135 0 -135 0 -3 -32 -3 -33 -100 0 -99 0 0 30 c0 29 1 29 62 32 61 3 63 4 68 33 4 25 10 30 38 33 32 3 33 5 30 40 -3 34 -6 37 -35 40 -29 3 -33 7 -33 33 l0 29 69 0 70 0 3 -32 c3 -29 6 -33 33 -33 l30 0 3 68 3 67 34 0 35 0 0 -105z m70 -275 c0 -28 -3 -30 -35 -30 -33 0 -35 -2 -35 -34 0 -32 3 -35 33 -38 28 -3 32 -7 35 -36 l3 -33 67 3 67 3 3 33 c3 28 7 32 32 32 25 0 29 4 32 33 3 28 7 32 36 35 28 3 32 7 32 33 0 27 3 29 35 29 32 0 35 -2 35 -30 0 -28 3 -30 35 -30 l35 0 0 -70 0 -70 -35 0 c-33 0 -35 2 -35 35 0 33 -2 35 -35 35 -33 0 -35 -2 -35 -35 0 -33 -2 -35 -35 -35 l-36 0 3 -67 3 -68 33 -3 c31 -3 32 -2 32 33 l0 36 103 -3 102 -3 0 -30 0 -30 -102 -3 -103 -3 0 -34 c0 -33 2 -35 34 -35 32 0 35 -3 38 -32 3 -29 7 -33 36 -36 28 -3 32 -7 32 -32 0 -25 -4 -29 -32 -32 -29 -3 -33 -7 -36 -36 -3 -29 -6 -32 -38 -32 l-34 0 0 70 c0 62 -2 70 -19 70 -37 0 -51 -12 -51 -41 0 -26 -4 -29 -30 -29 -25 0 -30 4 -30 23 0 36 -19 47 -82 47 -58 0 -58 0 -58 30 0 29 0 29 68 32 l67 3 0 65 0 65 -102 3 -103 3 0 -35 c0 -32 3 -35 33 -38 28 -3 32 -6 32 -33 0 -27 -4 -30 -32 -33 -32 -3 -33 -2 -33 32 0 32 -3 35 -32 38 -29 3 -33 7 -36 36 -3 31 -2 32 32 32 34 0 36 2 36 35 0 33 -2 35 -35 35 l-35 0 0 100 0 100 70 0 70 0 0 -30z m-145 -205 l0 -30 -167 -3 -168 -2 0 35 0 35 168 -2 167 -3 0 -30z m895 -205 l0 -100 -100 0 -100 0 0 100 0 100 100 0 100 0 0 -100z"/>
<path d="M1520 1760 l0 -240 240 0 240 0 0 240 0 240 -240 0 -240 0 0 -240z m410 0 l0 -170 -170 0 -170 0 0 170 0 170 170 0 170 0 0 -170z"/>
<path d="M1654 1847 c-3 -8 -4 -54 -2 -103 l3 -89 100 0 100 0 3 103 3 102 -101 0 c-74 0 -102 -3 -106 -13z"/>
<path d="M0 240 l0 -240 240 0 240 0 0 240 0 240 -240 0 -240 0 0 -240z m410 0 l0 -170 -170 0 -170 0 0 170 0 170 170 0 170 0 0 -170z"/>
<path d="M147 344 c-4 -4 -7 -52 -7 -106 l0 -99 103 3 102 3 0 100 0 100 -95 3 c-53 1 -99 0 -103 -4z"/>
</g>
</svg>
